<mxfile host="Electron" modified="2025-10-27T12:00:00.000Z" agent="5.0" version="21.6.5" etag="database_schema" type="device">
  <diagram name="Database Schema" id="database-schema-diagram">
    <mxGraphModel dx="1422" dy="844" grid="1" gridSize="10" guides="1" tooltips="1" connect="1" arrows="1" fold="1" page="1" pageScale="1" pageWidth="1169" pageHeight="827" math="0" shadow="0">
      <root>
        <mxCell id="0"/>
        <mxCell id="1" parent="0"/>
        
        <!-- Title -->
        <mxCell id="title" value="DSS Database Schema - MySQL" style="text;html=1;strokeColor=none;fillColor=none;align=center;verticalAlign=middle;whiteSpace=wrap;rounded=0;fontSize=24;fontStyle=1" vertex="1" parent="1">
          <mxGeometry x="380" y="20" width="400" height="40" as="geometry"/>
        </mxCell>
        
        <!-- Users Table -->
        <mxCell id="users-table" value="users" style="swimlane;fontStyle=1;childLayout=stackLayout;horizontal=1;startSize=30;horizontalStack=0;resizeParent=1;resizeParentMax=0;resizeLast=0;collapsible=1;marginBottom=0;align=center;fontSize=14;fillColor=#dae8fc;strokeColor=#6c8ebf;" vertex="1" parent="1">
          <mxGeometry x="80" y="100" width="240" height="210" as="geometry"/>
        </mxCell>
        <mxCell id="users-pk" value="🔑 id: BIGINT (PK, AI)" style="text;strokeColor=none;fillColor=none;align=left;verticalAlign=middle;spacingLeft=4;spacingRight=4;overflow=hidden;points=[[0,0.5],[1,0.5]];portConstraint=eastwest;rotatable=0;whiteSpace=wrap;html=1;fontStyle=1" vertex="1" parent="users-table">
          <mxGeometry y="30" width="240" height="30" as="geometry"/>
        </mxCell>
        <mxCell id="users-f1" value="username: VARCHAR(50) UNIQUE" style="text;strokeColor=none;fillColor=none;align=left;verticalAlign=middle;spacingLeft=4;spacingRight=4;overflow=hidden;points=[[0,0.5],[1,0.5]];portConstraint=eastwest;rotatable=0;whiteSpace=wrap;html=1;" vertex="1" parent="users-table">
          <mxGeometry y="60" width="240" height="30" as="geometry"/>
        </mxCell>
        <mxCell id="users-f2" value="password: VARCHAR(255)" style="text;strokeColor=none;fillColor=none;align=left;verticalAlign=middle;spacingLeft=4;spacingRight=4;overflow=hidden;points=[[0,0.5],[1,0.5]];portConstraint=eastwest;rotatable=0;whiteSpace=wrap;html=1;" vertex="1" parent="users-table">
          <mxGeometry y="90" width="240" height="30" as="geometry"/>
        </mxCell>
        <mxCell id="users-f3" value="email: VARCHAR(100) UNIQUE" style="text;strokeColor=none;fillColor=none;align=left;verticalAlign=middle;spacingLeft=4;spacingRight=4;overflow=hidden;points=[[0,0.5],[1,0.5]];portConstraint=eastwest;rotatable=0;whiteSpace=wrap;html=1;" vertex="1" parent="users-table">
          <mxGeometry y="120" width="240" height="30" as="geometry"/>
        </mxCell>
        <mxCell id="users-f4" value="role: VARCHAR(20)" style="text;strokeColor=none;fillColor=none;align=left;verticalAlign=middle;spacingLeft=4;spacingRight=4;overflow=hidden;points=[[0,0.5],[1,0.5]];portConstraint=eastwest;rotatable=0;whiteSpace=wrap;html=1;" vertex="1" parent="users-table">
          <mxGeometry y="150" width="240" height="30" as="geometry"/>
        </mxCell>
        <mxCell id="users-f5" value="enabled: BOOLEAN" style="text;strokeColor=none;fillColor=none;align=left;verticalAlign=middle;spacingLeft=4;spacingRight=4;overflow=hidden;points=[[0,0.5],[1,0.5]];portConstraint=eastwest;rotatable=0;whiteSpace=wrap;html=1;" vertex="1" parent="users-table">
          <mxGeometry y="180" width="240" height="30" as="geometry"/>
        </mxCell>
        
        <!-- Customers Table -->
        <mxCell id="customers-table" value="customers" style="swimlane;fontStyle=1;childLayout=stackLayout;horizontal=1;startSize=30;horizontalStack=0;resizeParent=1;resizeParentMax=0;resizeLast=0;collapsible=1;marginBottom=0;align=center;fontSize=14;fillColor=#d5e8d4;strokeColor=#82b366;" vertex="1" parent="1">
          <mxGeometry x="80" y="360" width="240" height="240" as="geometry"/>
        </mxCell>
        <mxCell id="customers-pk" value="🔑 id: BIGINT (PK, AI)" style="text;strokeColor=none;fillColor=none;align=left;verticalAlign=middle;spacingLeft=4;spacingRight=4;overflow=hidden;points=[[0,0.5],[1,0.5]];portConstraint=eastwest;rotatable=0;whiteSpace=wrap;html=1;fontStyle=1" vertex="1" parent="customers-table">
          <mxGeometry y="30" width="240" height="30" as="geometry"/>
        </mxCell>
        <mxCell id="customers-uk" value="⭐ customer_id: VARCHAR(50) UK" style="text;strokeColor=none;fillColor=none;align=left;verticalAlign=middle;spacingLeft=4;spacingRight=4;overflow=hidden;points=[[0,0.5],[1,0.5]];portConstraint=eastwest;rotatable=0;whiteSpace=wrap;html=1;fontStyle=1;fontColor=#CC0000;" vertex="1" parent="customers-table">
          <mxGeometry y="60" width="240" height="30" as="geometry"/>
        </mxCell>
        <mxCell id="customers-f1" value="name: VARCHAR(100)" style="text;strokeColor=none;fillColor=none;align=left;verticalAlign=middle;spacingLeft=4;spacingRight=4;overflow=hidden;points=[[0,0.5],[1,0.5]];portConstraint=eastwest;rotatable=0;whiteSpace=wrap;html=1;" vertex="1" parent="customers-table">
          <mxGeometry y="90" width="240" height="30" as="geometry"/>
        </mxCell>
        <mxCell id="customers-f2" value="email: VARCHAR(100)" style="text;strokeColor=none;fillColor=none;align=left;verticalAlign=middle;spacingLeft=4;spacingRight=4;overflow=hidden;points=[[0,0.5],[1,0.5]];portConstraint=eastwest;rotatable=0;whiteSpace=wrap;html=1;" vertex="1" parent="customers-table">
          <mxGeometry y="120" width="240" height="30" as="geometry"/>
        </mxCell>
        <mxCell id="customers-f3" value="phone: VARCHAR(20)" style="text;strokeColor=none;fillColor=none;align=left;verticalAlign=middle;spacingLeft=4;spacingRight=4;overflow=hidden;points=[[0,0.5],[1,0.5]];portConstraint=eastwest;rotatable=0;whiteSpace=wrap;html=1;" vertex="1" parent="customers-table">
          <mxGeometry y="150" width="240" height="30" as="geometry"/>
        </mxCell>
        <mxCell id="customers-f4" value="address: TEXT" style="text;strokeColor=none;fillColor=none;align=left;verticalAlign=middle;spacingLeft=4;spacingRight=4;overflow=hidden;points=[[0,0.5],[1,0.5]];portConstraint=eastwest;rotatable=0;whiteSpace=wrap;html=1;" vertex="1" parent="customers-table">
          <mxGeometry y="180" width="240" height="30" as="geometry"/>
        </mxCell>
        <mxCell id="customers-f5" value="segment: VARCHAR(50)" style="text;strokeColor=none;fillColor=none;align=left;verticalAlign=middle;spacingLeft=4;spacingRight=4;overflow=hidden;points=[[0,0.5],[1,0.5]];portConstraint=eastwest;rotatable=0;whiteSpace=wrap;html=1;" vertex="1" parent="customers-table">
          <mxGeometry y="210" width="240" height="30" as="geometry"/>
        </mxCell>
        
        <!-- Products Table -->
        <mxCell id="products-table" value="products" style="swimlane;fontStyle=1;childLayout=stackLayout;horizontal=1;startSize=30;horizontalStack=0;resizeParent=1;resizeParentMax=0;resizeLast=0;collapsible=1;marginBottom=0;align=center;fontSize=14;fillColor=#fff2cc;strokeColor=#d6b656;" vertex="1" parent="1">
          <mxGeometry x="800" y="360" width="240" height="210" as="geometry"/>
        </mxCell>
        <mxCell id="products-pk" value="🔑 id: BIGINT (PK, AI)" style="text;strokeColor=none;fillColor=none;align=left;verticalAlign=middle;spacingLeft=4;spacingRight=4;overflow=hidden;points=[[0,0.5],[1,0.5]];portConstraint=eastwest;rotatable=0;whiteSpace=wrap;html=1;fontStyle=1" vertex="1" parent="products-table">
          <mxGeometry y="30" width="240" height="30" as="geometry"/>
        </mxCell>
        <mxCell id="products-uk" value="⭐ product_id: VARCHAR(50) UK" style="text;strokeColor=none;fillColor=none;align=left;verticalAlign=middle;spacingLeft=4;spacingRight=4;overflow=hidden;points=[[0,0.5],[1,0.5]];portConstraint=eastwest;rotatable=0;whiteSpace=wrap;html=1;fontStyle=1;fontColor=#CC0000;" vertex="1" parent="products-table">
          <mxGeometry y="60" width="240" height="30" as="geometry"/>
        </mxCell>
        <mxCell id="products-f1" value="name: VARCHAR(200)" style="text;strokeColor=none;fillColor=none;align=left;verticalAlign=middle;spacingLeft=4;spacingRight=4;overflow=hidden;points=[[0,0.5],[1,0.5]];portConstraint=eastwest;rotatable=0;whiteSpace=wrap;html=1;" vertex="1" parent="products-table">
          <mxGeometry y="90" width="240" height="30" as="geometry"/>
        </mxCell>
        <mxCell id="products-f2" value="category: VARCHAR(50)" style="text;strokeColor=none;fillColor=none;align=left;verticalAlign=middle;spacingLeft=4;spacingRight=4;overflow=hidden;points=[[0,0.5],[1,0.5]];portConstraint=eastwest;rotatable=0;whiteSpace=wrap;html=1;" vertex="1" parent="products-table">
          <mxGeometry y="120" width="240" height="30" as="geometry"/>
        </mxCell>
        <mxCell id="products-f3" value="price: DECIMAL(10, 2)" style="text;strokeColor=none;fillColor=none;align=left;verticalAlign=middle;spacingLeft=4;spacingRight=4;overflow=hidden;points=[[0,0.5],[1,0.5]];portConstraint=eastwest;rotatable=0;whiteSpace=wrap;html=1;" vertex="1" parent="products-table">
          <mxGeometry y="150" width="240" height="30" as="geometry"/>
        </mxCell>
        <mxCell id="products-f4" value="stock_quantity: INT" style="text;strokeColor=none;fillColor=none;align=left;verticalAlign=middle;spacingLeft=4;spacingRight=4;overflow=hidden;points=[[0,0.5],[1,0.5]];portConstraint=eastwest;rotatable=0;whiteSpace=wrap;html=1;" vertex="1" parent="products-table">
          <mxGeometry y="180" width="240" height="30" as="geometry"/>
        </mxCell>
        
        <!-- Orders Table -->
        <mxCell id="orders-table" value="orders" style="swimlane;fontStyle=1;childLayout=stackLayout;horizontal=1;startSize=30;horizontalStack=0;resizeParent=1;resizeParentMax=0;resizeLast=0;collapsible=1;marginBottom=0;align=center;fontSize=14;fillColor=#ffe6cc;strokeColor=#d79b00;" vertex="1" parent="1">
          <mxGeometry x="440" y="360" width="260" height="270" as="geometry"/>
        </mxCell>
        <mxCell id="orders-pk" value="🔑 id: BIGINT (PK, AI)" style="text;strokeColor=none;fillColor=none;align=left;verticalAlign=middle;spacingLeft=4;spacingRight=4;overflow=hidden;points=[[0,0.5],[1,0.5]];portConstraint=eastwest;rotatable=0;whiteSpace=wrap;html=1;fontStyle=1" vertex="1" parent="orders-table">
          <mxGeometry y="30" width="260" height="30" as="geometry"/>
        </mxCell>
        <mxCell id="orders-uk" value="⭐ order_id: VARCHAR(50) UK" style="text;strokeColor=none;fillColor=none;align=left;verticalAlign=middle;spacingLeft=4;spacingRight=4;overflow=hidden;points=[[0,0.5],[1,0.5]];portConstraint=eastwest;rotatable=0;whiteSpace=wrap;html=1;fontStyle=1;fontColor=#CC0000;" vertex="1" parent="orders-table">
          <mxGeometry y="60" width="260" height="30" as="geometry"/>
        </mxCell>
        <mxCell id="orders-fk1" value="🔗 customer_id: VARCHAR(50) FK" style="text;strokeColor=none;fillColor=none;align=left;verticalAlign=middle;spacingLeft=4;spacingRight=4;overflow=hidden;points=[[0,0.5],[1,0.5]];portConstraint=eastwest;rotatable=0;whiteSpace=wrap;html=1;fontStyle=1;fontColor=#0066CC;" vertex="1" parent="orders-table">
          <mxGeometry y="90" width="260" height="30" as="geometry"/>
        </mxCell>
        <mxCell id="orders-f1" value="order_date: TIMESTAMP" style="text;strokeColor=none;fillColor=none;align=left;verticalAlign=middle;spacingLeft=4;spacingRight=4;overflow=hidden;points=[[0,0.5],[1,0.5]];portConstraint=eastwest;rotatable=0;whiteSpace=wrap;html=1;" vertex="1" parent="orders-table">
          <mxGeometry y="120" width="260" height="30" as="geometry"/>
        </mxCell>
        <mxCell id="orders-f2" value="status: VARCHAR(20)" style="text;strokeColor=none;fillColor=none;align=left;verticalAlign=middle;spacingLeft=4;spacingRight=4;overflow=hidden;points=[[0,0.5],[1,0.5]];portConstraint=eastwest;rotatable=0;whiteSpace=wrap;html=1;" vertex="1" parent="orders-table">
          <mxGeometry y="150" width="260" height="30" as="geometry"/>
        </mxCell>
        <mxCell id="orders-f3" value="total_amount: DECIMAL(10, 2)" style="text;strokeColor=none;fillColor=none;align=left;verticalAlign=middle;spacingLeft=4;spacingRight=4;overflow=hidden;points=[[0,0.5],[1,0.5]];portConstraint=eastwest;rotatable=0;whiteSpace=wrap;html=1;" vertex="1" parent="orders-table">
          <mxGeometry y="180" width="260" height="30" as="geometry"/>
        </mxCell>
        <mxCell id="orders-f4" value="payment_method: VARCHAR(50)" style="text;strokeColor=none;fillColor=none;align=left;verticalAlign=middle;spacingLeft=4;spacingRight=4;overflow=hidden;points=[[0,0.5],[1,0.5]];portConstraint=eastwest;rotatable=0;whiteSpace=wrap;html=1;" vertex="1" parent="orders-table">
          <mxGeometry y="210" width="260" height="30" as="geometry"/>
        </mxCell>
        <mxCell id="orders-f5" value="return_risk_score: DECIMAL(3, 2)" style="text;strokeColor=none;fillColor=none;align=left;verticalAlign=middle;spacingLeft=4;spacingRight=4;overflow=hidden;points=[[0,0.5],[1,0.5]];portConstraint=eastwest;rotatable=0;whiteSpace=wrap;html=1;" vertex="1" parent="orders-table">
          <mxGeometry y="240" width="260" height="30" as="geometry"/>
        </mxCell>
        
        <!-- Order Items Table -->
        <mxCell id="order-items-table" value="order_items" style="swimlane;fontStyle=1;childLayout=stackLayout;horizontal=1;startSize=30;horizontalStack=0;resizeParent=1;resizeParentMax=0;resizeLast=0;collapsible=1;marginBottom=0;align=center;fontSize=14;fillColor=#f8cecc;strokeColor=#b85450;" vertex="1" parent="1">
          <mxGeometry x="440" y="680" width="260" height="210" as="geometry"/>
        </mxCell>
        <mxCell id="order-items-pk" value="🔑 id: BIGINT (PK, AI)" style="text;strokeColor=none;fillColor=none;align=left;verticalAlign=middle;spacingLeft=4;spacingRight=4;overflow=hidden;points=[[0,0.5],[1,0.5]];portConstraint=eastwest;rotatable=0;whiteSpace=wrap;html=1;fontStyle=1" vertex="1" parent="order-items-table">
          <mxGeometry y="30" width="260" height="30" as="geometry"/>
        </mxCell>
        <mxCell id="order-items-fk1" value="🔗 order_id: VARCHAR(50) FK" style="text;strokeColor=none;fillColor=none;align=left;verticalAlign=middle;spacingLeft=4;spacingRight=4;overflow=hidden;points=[[0,0.5],[1,0.5]];portConstraint=eastwest;rotatable=0;whiteSpace=wrap;html=1;fontStyle=1;fontColor=#0066CC;" vertex="1" parent="order-items-table">
          <mxGeometry y="60" width="260" height="30" as="geometry"/>
        </mxCell>
        <mxCell id="order-items-fk2" value="🔗 product_id: VARCHAR(50) FK" style="text;strokeColor=none;fillColor=none;align=left;verticalAlign=middle;spacingLeft=4;spacingRight=4;overflow=hidden;points=[[0,0.5],[1,0.5]];portConstraint=eastwest;rotatable=0;whiteSpace=wrap;html=1;fontStyle=1;fontColor=#0066CC;" vertex="1" parent="order-items-table">
          <mxGeometry y="90" width="260" height="30" as="geometry"/>
        </mxCell>
        <mxCell id="order-items-f1" value="product_name: VARCHAR(200)" style="text;strokeColor=none;fillColor=none;align=left;verticalAlign=middle;spacingLeft=4;spacingRight=4;overflow=hidden;points=[[0,0.5],[1,0.5]];portConstraint=eastwest;rotatable=0;whiteSpace=wrap;html=1;" vertex="1" parent="order-items-table">
          <mxGeometry y="120" width="260" height="30" as="geometry"/>
        </mxCell>
        <mxCell id="order-items-f2" value="quantity: INT" style="text;strokeColor=none;fillColor=none;align=left;verticalAlign=middle;spacingLeft=4;spacingRight=4;overflow=hidden;points=[[0,0.5],[1,0.5]];portConstraint=eastwest;rotatable=0;whiteSpace=wrap;html=1;" vertex="1" parent="order-items-table">
          <mxGeometry y="150" width="260" height="30" as="geometry"/>
        </mxCell>
        <mxCell id="order-items-f3" value="price: DECIMAL(10, 2)" style="text;strokeColor=none;fillColor=none;align=left;verticalAlign=middle;spacingLeft=4;spacingRight=4;overflow=hidden;points=[[0,0.5],[1,0.5]];portConstraint=eastwest;rotatable=0;whiteSpace=wrap;html=1;" vertex="1" parent="order-items-table">
          <mxGeometry y="180" width="260" height="30" as="geometry"/>
        </mxCell>
        
        <!-- Rule Cache Table -->
        <mxCell id="rule-cache-table" value="rule_cache" style="swimlane;fontStyle=1;childLayout=stackLayout;horizontal=1;startSize=30;horizontalStack=0;resizeParent=1;resizeParentMax=0;resizeLast=0;collapsible=1;marginBottom=0;align=center;fontSize=14;fillColor=#e1d5e7;strokeColor=#9673a6;" vertex="1" parent="1">
          <mxGeometry x="80" y="680" width="240" height="150" as="geometry"/>
        </mxCell>
        <mxCell id="rule-cache-pk" value="🔑 id: BIGINT (PK, AI)" style="text;strokeColor=none;fillColor=none;align=left;verticalAlign=middle;spacingLeft=4;spacingRight=4;overflow=hidden;points=[[0,0.5],[1,0.5]];portConstraint=eastwest;rotatable=0;whiteSpace=wrap;html=1;fontStyle=1" vertex="1" parent="rule-cache-table">
          <mxGeometry y="30" width="240" height="30" as="geometry"/>
        </mxCell>
        <mxCell id="rule-cache-f1" value="rule_type: VARCHAR(50)" style="text;strokeColor=none;fillColor=none;align=left;verticalAlign=middle;spacingLeft=4;spacingRight=4;overflow=hidden;points=[[0,0.5],[1,0.5]];portConstraint=eastwest;rotatable=0;whiteSpace=wrap;html=1;" vertex="1" parent="rule-cache-table">
          <mxGeometry y="60" width="240" height="30" as="geometry"/>
        </mxCell>
        <mxCell id="rule-cache-f2" value="rule_data: JSON" style="text;strokeColor=none;fillColor=none;align=left;verticalAlign=middle;spacingLeft=4;spacingRight=4;overflow=hidden;points=[[0,0.5],[1,0.5]];portConstraint=eastwest;rotatable=0;whiteSpace=wrap;html=1;" vertex="1" parent="rule-cache-table">
          <mxGeometry y="90" width="240" height="30" as="geometry"/>
        </mxCell>
        <mxCell id="rule-cache-f3" value="generated_at: TIMESTAMP" style="text;strokeColor=none;fillColor=none;align=left;verticalAlign=middle;spacingLeft=4;spacingRight=4;overflow=hidden;points=[[0,0.5],[1,0.5]];portConstraint=eastwest;rotatable=0;whiteSpace=wrap;html=1;" vertex="1" parent="rule-cache-table">
          <mxGeometry y="120" width="240" height="30" as="geometry"/>
        </mxCell>
        
        <!-- Online Retail Table -->
        <mxCell id="online-retail-table" value="online_retail (CSV Data)" style="swimlane;fontStyle=1;childLayout=stackLayout;horizontal=1;startSize=30;horizontalStack=0;resizeParent=1;resizeParentMax=0;resizeLast=0;collapsible=1;marginBottom=0;align=center;fontSize=14;fillColor=#b0e3e6;strokeColor=#0e8088;" vertex="1" parent="1">
          <mxGeometry x="800" y="100" width="260" height="210" as="geometry"/>
        </mxCell>
        <mxCell id="online-retail-pk" value="🔑 id: INT (PK, AI)" style="text;strokeColor=none;fillColor=none;align=left;verticalAlign=middle;spacingLeft=4;spacingRight=4;overflow=hidden;points=[[0,0.5],[1,0.5]];portConstraint=eastwest;rotatable=0;whiteSpace=wrap;html=1;fontStyle=1" vertex="1" parent="online-retail-table">
          <mxGeometry y="30" width="260" height="30" as="geometry"/>
        </mxCell>
        <mxCell id="online-retail-f1" value="invoice_no: VARCHAR(20)" style="text;strokeColor=none;fillColor=none;align=left;verticalAlign=middle;spacingLeft=4;spacingRight=4;overflow=hidden;points=[[0,0.5],[1,0.5]];portConstraint=eastwest;rotatable=0;whiteSpace=wrap;html=1;" vertex="1" parent="online-retail-table">
          <mxGeometry y="60" width="260" height="30" as="geometry"/>
        </mxCell>
        <mxCell id="online-retail-f2" value="invoice_date: DATETIME" style="text;strokeColor=none;fillColor=none;align=left;verticalAlign=middle;spacingLeft=4;spacingRight=4;overflow=hidden;points=[[0,0.5],[1,0.5]];portConstraint=eastwest;rotatable=0;whiteSpace=wrap;html=1;" vertex="1" parent="online-retail-table">
          <mxGeometry y="90" width="260" height="30" as="geometry"/>
        </mxCell>
        <mxCell id="online-retail-f3" value="stock_code: VARCHAR(50)" style="text;strokeColor=none;fillColor=none;align=left;verticalAlign=middle;spacingLeft=4;spacingRight=4;overflow=hidden;points=[[0,0.5],[1,0.5]];portConstraint=eastwest;rotatable=0;whiteSpace=wrap;html=1;" vertex="1" parent="online-retail-table">
          <mxGeometry y="120" width="260" height="30" as="geometry"/>
        </mxCell>
        <mxCell id="online-retail-f4" value="quantity: INT" style="text;strokeColor=none;fillColor=none;align=left;verticalAlign=middle;spacingLeft=4;spacingRight=4;overflow=hidden;points=[[0,0.5],[1,0.5]];portConstraint=eastwest;rotatable=0;whiteSpace=wrap;html=1;" vertex="1" parent="online-retail-table">
          <mxGeometry y="150" width="260" height="30" as="geometry"/>
        </mxCell>
        <mxCell id="online-retail-f5" value="customer_id: INT (nullable)" style="text;strokeColor=none;fillColor=none;align=left;verticalAlign=middle;spacingLeft=4;spacingRight=4;overflow=hidden;points=[[0,0.5],[1,0.5]];portConstraint=eastwest;rotatable=0;whiteSpace=wrap;html=1;" vertex="1" parent="online-retail-table">
          <mxGeometry y="180" width="260" height="30" as="geometry"/>
        </mxCell>
        
        <!-- Relationships -->
        <!-- Orders -> Customers -->
        <mxCell id="rel-orders-customers" value="" style="edgeStyle=entityRelationEdgeStyle;fontSize=12;html=1;endArrow=ERmandOne;startArrow=ERmany;rounded=0;exitX=0;exitY=0.5;exitDx=0;exitDy=0;entryX=1;entryY=0.5;entryDx=0;entryDy=0;strokeWidth=2;strokeColor=#0066CC;" edge="1" parent="1" source="orders-fk1" target="customers-uk">
          <mxGeometry width="100" height="100" relative="1" as="geometry">
            <mxPoint x="430" y="480" as="sourcePoint"/>
            <mxPoint x="530" y="380" as="targetPoint"/>
          </mxGeometry>
        </mxCell>
        
        <!-- Order Items -> Orders -->
        <mxCell id="rel-order-items-orders" value="" style="edgeStyle=entityRelationEdgeStyle;fontSize=12;html=1;endArrow=ERmandOne;startArrow=ERmany;rounded=0;exitX=0.5;exitY=0;exitDx=0;exitDy=0;entryX=0.5;entryY=1;entryDx=0;entryDy=0;strokeWidth=2;strokeColor=#0066CC;" edge="1" parent="1" source="order-items-table" target="orders-table">
          <mxGeometry width="100" height="100" relative="1" as="geometry">
            <mxPoint x="530" y="680" as="sourcePoint"/>
            <mxPoint x="530" y="630" as="targetPoint"/>
          </mxGeometry>
        </mxCell>
        
        <!-- Order Items -> Products -->
        <mxCell id="rel-order-items-products" value="" style="edgeStyle=entityRelationEdgeStyle;fontSize=12;html=1;endArrow=ERmandOne;startArrow=ERmany;rounded=0;exitX=1;exitY=0.5;exitDx=0;exitDy=0;entryX=0;entryY=0.5;entryDx=0;entryDy=0;strokeWidth=2;strokeColor=#0066CC;" edge="1" parent="1" source="order-items-fk2" target="products-uk">
          <mxGeometry width="100" height="100" relative="1" as="geometry">
            <mxPoint x="700" y="785" as="sourcePoint"/>
            <mxPoint x="800" y="435" as="targetPoint"/>
          </mxGeometry>
        </mxCell>
        
        <!-- Legend -->
        <mxCell id="legend-box" value="" style="rounded=1;whiteSpace=wrap;html=1;fillColor=#f5f5f5;strokeColor=#666666;dashed=1;" vertex="1" parent="1">
          <mxGeometry x="400" y="70" width="300" height="120" as="geometry"/>
        </mxCell>
        <mxCell id="legend-title" value="Legend" style="text;html=1;strokeColor=none;fillColor=none;align=center;verticalAlign=middle;whiteSpace=wrap;rounded=0;fontSize=16;fontStyle=1" vertex="1" parent="1">
          <mxGeometry x="400" y="75" width="300" height="20" as="geometry"/>
        </mxCell>
        <mxCell id="legend-pk" value="🔑 Primary Key (PK)" style="text;html=1;strokeColor=none;fillColor=none;align=left;verticalAlign=middle;whiteSpace=wrap;rounded=0;fontSize=12;" vertex="1" parent="1">
          <mxGeometry x="415" y="100" width="270" height="20" as="geometry"/>
        </mxCell>
        <mxCell id="legend-fk" value="🔗 Foreign Key (FK)" style="text;html=1;strokeColor=none;fillColor=none;align=left;verticalAlign=middle;whiteSpace=wrap;rounded=0;fontSize=12;fontColor=#0066CC;fontStyle=1" vertex="1" parent="1">
          <mxGeometry x="415" y="122" width="270" height="20" as="geometry"/>
        </mxCell>
        <mxCell id="legend-uk" value="⭐ Unique Key (UK)" style="text;html=1;strokeColor=none;fillColor=none;align=left;verticalAlign=middle;whiteSpace=wrap;rounded=0;fontSize=12;fontColor=#CC0000;fontStyle=1" vertex="1" parent="1">
          <mxGeometry x="415" y="144" width="270" height="20" as="geometry"/>
        </mxCell>
        <mxCell id="legend-ai" value="AI = Auto Increment" style="text;html=1;strokeColor=none;fillColor=none;align=left;verticalAlign=middle;whiteSpace=wrap;rounded=0;fontSize=12;" vertex="1" parent="1">
          <mxGeometry x="415" y="166" width="270" height="20" as="geometry"/>
        </mxCell>
        
      </root>
    </mxGraphModel>
  </diagram>
</mxfile>
